<svg width="288" height="131.1435360749684" viewBox="0 0 288 131.1435360749684" class="css-1j8o68f"><defs id="SvgjsDefs1752"></defs><g id="SvgjsG1753" featurekey="symbolContainer" transform="matrix(0.9,0,0,0.9,0,24)" fill="#ffffff"><rect xmlns="http://www.w3.org/2000/svg" width="75" height="92" rx="10" ry="10"></rect></g><g id="SvgjsG1754" featurekey="monogramFeature-0" transform="matrix(1.2651556017398538,0,0,1.2651556017398538,12.204736497849451,15.178915456810877)" fill="#8d6262"><path d="M29.101 49.885999999999996 c0.5911 -0.21803 0.91206 10.261 0.45697 10.093 c-5.1151 -0.78426 -11.184 -0.42961 -17.185 -1.3779 c-1.3309 0.25805 -2.7393 0.20086 -3.0444 -0.42961 c-4.0238 -11.627 -6.2364 -24.184 -6.3276 -37.076 c-0.01207 -0.078162 0.073068 -0.136 0.22623 -0.17924 c0.10108 -0.22564 0.24346 -0.39023 0.43477 -0.4449 c4.4204 -0.7983 8.883 -1.1987 13.349 -1.4364 c4.4693 -0.22436 8.9424 -0.26631 13.461 -0.12328 c0.7608 -0.07248 -0.93684 10.272 -1.5718 9.9822 c-3.3031 -0.9756 -6.6738 -1.8438 -10.073 -2.6045 c-0.81228 2.876 -1.5032 5.8085 -2.0675 8.7876 l11.07 -1.9944 c0.39217 -0.16717 -0.17666 10.3 -0.5485 10.091 l-11.313 -3.3367 c-0.65082 4.5869 -0.99906 9.2652 -1.0391 13.992 c4.4719 -1.1256 8.9388 -2.8575 14.172 -3.9431 z"></path></g><g id="SvgjsG1755" featurekey="nameFeature-0" transform="matrix(4.683631036130802,0,0,4.683631036130802,80.50578655625087,-56.20170537026367)" fill="#ffffff"><path d="M20.322 35.6076 c1.213 0 2.196 0.98332 2.196 2.1961 s-0.98328 2.196 -2.196 2.196 l-16.525 0 c-1.2128 0 -2.196 -0.98328 -2.196 -2.196 l0 -7.0824 c0 -1.2128 0.98328 -2.196 2.196 -2.196 l2.9611 0 l-4.5136 -4.5136 c-0.85784 -0.85756 -0.85784 -2.248 0 -3.1056 c0.85756 -0.85756 2.248 -0.85756 3.1056 0 l8.2628 8.2628 c0.62808 0.62808 0.81584 1.5726 0.476 2.3932 s-1.1406 1.3555 -2.0289 1.3555 l-6.0666 0 l0 2.6902 l14.329 0 z M21.502 12 c1.213 0 2.1963 0.98328 2.1963 2.196 s-0.98328 2.196 -2.196 2.196 l-12.404 0 l4.5136 4.5136 c0.85784 0.85756 0.85784 2.248 0 3.1056 c-0.4288 0.4288 -0.99072 0.64316 -1.5529 0.64316 s-1.1241 -0.21438 -1.5529 -0.64316 l-8.2628 -8.2628 c-0.62808 -0.62808 -0.81584 -1.5726 -0.476 -2.3932 s1.1406 -1.3555 2.0289 -1.3555 l17.706 0 z M42.105999999999995 27.345 c1.213 0 2.196 0.98328 2.196 2.196 c0 5.7668 -4.692 10.459 -10.459 10.459 s-10.459 -4.692 -10.459 -10.459 l0 -7.0824 c0 -5.7668 4.692 -10.459 10.459 -10.459 s10.459 4.692 10.459 10.459 c0 1.2128 -0.98328 2.196 -2.196 2.196 s-2.196 -0.98328 -2.196 -2.196 c0 -3.3452 -2.7215 -6.0668 -6.0668 -6.0668 s-6.0668 2.7215 -6.0668 6.0668 l0 7.0824 c0 3.3452 2.7215 6.0668 6.0668 6.0668 c2.571 0 4.7736 -1.6075 5.6556 -3.8706 l-5.6554 0 c-1.2128 0 -2.196 -0.98328 -2.196 -2.196 s0.98328 -2.196 2.196 -2.196 l8.2627 0 z"></path></g></svg>
